
<svg xmlns="http://www.w3.org/2000/svg" viewBox="0 0 773.56 327.81"><defs><style>.cls-1,.cls-2{fill:#fbbf0d;}.cls-2{font-size:42.94px;font-family:ProximaNova-Bold, Proxima Nova;font-weight:700;letter-spacing:0.61em;}.cls-3{letter-spacing:0.6em;}.cls-4{letter-spacing:0.59em;}.cls-5{letter-spacing:0.59em;}.cls-6{letter-spacing:0.61em;}</style></defs><title>Middel 1</title><g id="Laag_2" data-name="Laag 2"><g id="Laag_1-2" data-name="Laag 1"><path class="cls-1" d="M168,52.78l40.77,69.4q35.24,60,70.55,120c2.22,3.75,1.9,5.33-1.93,7.6q-64.53,38.13-128.81,76.67c-2.5,1.5-4.34,2-7.1.38Q77.24,288.81,12.86,251a4.65,4.65,0,0,1-.82-.87c1.06-1.62,2.7-.78,4-.82,4.32-.13,8.64-.09,13-.07,11.27,0,23.1-2,33.65.76S82.49,260.42,92.31,266c16.53,9.3,33.09,18.55,49.53,28,2.68,1.54,4.46,1.41,7.07-.14q44.1-26.19,88.4-52c3.46-2,3.73-3.27,1.8-6.74-28.06-50.37-55.9-100.86-84-151.23-1.81-3.25-1.84-5.51.08-8.62C159.54,68.2,163.42,60.92,168,52.78Z"/><path class="cls-1" d="M639.72,229.13V77.65H746.91V106H672v32h73.36v28.39H672v34.29h74.94v28.39Z"/><path class="cls-1" d="M526.86,229.13,468.27,77.65h36.79l42,116.51L588.86,77.65h36.79L567.29,229.13Z"/><path class="cls-1" d="M422.18,229.13V77.65h32.24V229.13Z"/><path class="cls-1" d="M288.42,137.15H360V77.65h32.48V229.13H360V165.54H288.42"/><text class="cls-2" transform="translate(287.52 278.46)">ECO<tspan class="cls-3" x="165.56" y="0">S</tspan><tspan class="cls-4" x="216.96" y="0">Y</tspan><tspan class="cls-5" x="269.85" y="0">S</tspan><tspan class="cls-6" x="321.12" y="0">TEM</tspan></text><g id="cB0hET.tif"><path class="cls-1" d="M290.6,229c-1.9,1.63-2.12-.33-2.67-1.31-8.08-14.43-16.07-28.89-24.22-43.28-1.5-2.64-1.52-5.34-1.52-8.16,0-26.13-.08-52.27.09-78.4,0-4.06-1.15-6.34-4.82-8.37q-45.64-25.2-91-50.91c-4.07-2.3-5.67-2-8,2.16q-37,66.18-74.31,132.14C80.76,179,77.26,185,74,191.13c-1.5,2.84-3.39,4.05-6.66,4-7.33-.21-14.67-.28-22,0-4.73.18-4.48-1.32-2.56-4.68q17-29.89,33.78-59.89,35.54-63.11,71-126.27c2.54-4.56,4.23-5.46,9.13-2.69Q220.94,38,285.54,73.69c3.48,1.93,4.6,4.1,4.59,8q-.19,69.95-.07,139.89c0,2.23.31,4.46.47,6.69.34.15.47.33.38.52S290.71,229,290.6,229Z"/></g><path class="cls-1" d="M28,206.47c1.66,1.94,3.88.93,5.79.93q85.47.12,170.94,0c5.44,0,8.94,1,11.38,6.45,3.1,6.95,7.35,13.38,11.21,20.22-3.05,1.22-5.68.7-8.22.7-70.9,0-141.79-.06-212.69.12-5.32,0-6.45-1.56-6.43-6.57.17-48.89.09-97.79.06-146.68,0-2.89.13-5.26,3.25-7Q67,38.28,130.49,1.72a10,10,0,0,1,2.13-.45c-8.12,14.78-16,29-23.77,43.28-1.17,2.13-3.32,3-5.24,4.11L36,88.25c-1,.56-1.82,1.28-2.73,1.93-4.15,2.9-4.45,7-4.43,11.7.17,32.48.1,65,.06,97.45C28.88,201.72,29.44,204.23,28,206.47Z"/></g></g></svg>